<svg width="1360" height="12" viewBox="0 0 1360 12" fill="none" xmlns="http://www.w3.org/2000/svg">
<path d="M0.46967 5.46967C0.176777 5.76256 0.176777 6.23744 0.46967 6.53033L5.24264 11.3033C5.53553 11.5962 6.01041 11.5962 6.3033 11.3033C6.59619 11.0104 6.59619 10.5355 6.3033 10.2426L2.06066 6L6.3033 1.75736C6.59619 1.46447 6.59619 0.989592 6.3033 0.696699C6.01041 0.403805 5.53553 0.403805 5.24264 0.696699L0.46967 5.46967ZM11 5.25L1 5.25L1 6.75L11 6.75L11 5.25Z" fill="black"/>
<path d="M1359.53 5.46967C1359.82 5.76256 1359.82 6.23744 1359.53 6.53033L1354.76 11.3033C1354.46 11.5962 1353.99 11.5962 1353.7 11.3033C1353.4 11.0104 1353.4 10.5355 1353.7 10.2426L1357.94 6L1353.7 1.75736C1353.4 1.46447 1353.4 0.989592 1353.7 0.696699C1353.99 0.403805 1354.46 0.403805 1354.76 0.696699L1359.53 5.46967ZM1349 5.25L1359 5.25L1359 6.75L1349 6.75L1349 5.25Z" fill="white"/>
</svg>
