<svg width="827" height="476" viewBox="0 0 827 476" fill="none" xmlns="http://www.w3.org/2000/svg">
<path d="M566 -26C600.275 -26 634.214 -19.249 665.88 -6.13257C697.546 6.98392 726.319 26.209 750.555 50.4451C774.791 74.6812 794.016 103.454 807.133 135.12C820.249 166.786 827 200.725 827 235C827 269.275 820.249 303.214 807.133 334.88C794.016 366.546 774.791 395.319 750.555 419.555C726.319 443.791 697.546 463.016 665.88 476.133C634.214 489.249 600.275 496 566 496L566 235L566 -26Z" fill="#6B8B2A"/>
<path d="M522 -24.5C522 9.84067 515.249 43.8451 502.133 75.5717C489.016 107.298 469.791 136.126 445.555 160.408C421.319 184.691 392.546 203.953 360.88 217.095C329.214 230.236 295.275 237 261 237C226.725 237 192.786 230.236 161.12 217.094C129.454 203.953 100.681 184.691 76.4451 160.408C52.209 136.126 32.9839 107.298 19.8674 75.5717C6.75096 43.8451 -2.99642e-06 9.84064 0 -24.5L261 -24.5L522 -24.5Z" fill="#6B8B2A"/>
<path d="M522 239C522 273.275 515.249 307.214 502.133 338.88C489.016 370.546 469.791 399.319 445.555 423.555C421.319 447.791 392.546 467.016 360.88 480.133C329.214 493.249 295.275 500 261 500C226.725 500 192.786 493.249 161.12 480.133C129.454 467.016 100.681 447.791 76.4451 423.555C52.209 399.319 32.9839 370.546 19.8674 338.88C6.75096 307.214 -2.99642e-06 273.275 0 239L261 239L522 239Z" fill="#6B8B2A"/>
</svg>
