<svg width="202" height="156" viewBox="0 0 202 156" fill="none" xmlns="http://www.w3.org/2000/svg">
<rect y="160.143" width="269.055" height="269.055" transform="rotate(-30 0 160.143)" fill="#5E467D"/>
<path d="M70.7156 151.718L63.333 149.255L61.7145 156.915L57.2744 159.478L59.6806 148.021L48.4202 144.212L53.3738 141.352L60.5705 143.842L62.1634 136.277L66.6337 133.696L64.2229 145.076L75.4578 148.98L70.7156 151.718ZM77.5455 147.775L68.7215 132.491L72.5273 130.294L78.4391 140.533L80.1993 125.864L84.0354 123.65L92.8594 138.933L89.0234 141.148L83.0942 130.878L81.3513 145.577L77.5455 147.775ZM101.319 134.049L94.3962 122.058L88.4459 125.493L86.5451 122.201L102.252 113.132L104.152 116.425L98.2323 119.843L105.155 131.834L101.319 134.049ZM131.989 116.342L124.607 113.878L122.988 121.538L118.548 124.102L120.954 112.644L109.694 108.836L114.647 105.976L121.844 108.466L123.437 100.901L127.907 98.3202L125.496 109.7L136.731 113.604L131.989 116.342ZM138.819 112.398L129.995 97.1148L133.801 94.9175L139.713 105.157L141.473 90.488L145.309 88.2733L154.133 103.557L150.297 105.772L144.368 95.5021L142.625 110.201L138.819 112.398ZM162.593 98.6726L155.67 86.6812L149.719 90.1167L147.819 86.8243L163.525 77.7562L165.426 81.0485L159.506 84.4665L166.429 96.4578L162.593 98.6726ZM193.263 80.9654L185.88 78.5021L184.262 86.1622L179.822 88.7257L182.228 77.2682L170.967 73.4594L175.921 70.5995L183.118 73.0895L184.71 65.5248L189.181 62.9439L186.77 74.3235L198.005 78.2275L193.263 80.9654ZM200.093 77.0221L191.269 61.7385L195.074 59.5412L200.986 69.7806L202.746 55.1117L206.582 52.897L215.406 68.1807L211.57 70.3954L205.641 60.1258L203.898 74.8249L200.093 77.0221ZM223.867 63.2963L216.943 51.3049L210.993 54.7404L209.092 51.448L224.799 42.3799L226.699 45.6722L220.779 49.0902L227.703 61.0815L223.867 63.2963ZM247.706 49.5328L240.323 47.0695L238.705 54.7295L234.264 57.293L236.671 45.8355L225.41 42.0268L230.364 39.1669L237.56 41.6569L239.153 34.0922L243.624 31.5112L241.213 42.8909L252.448 46.7949L247.706 49.5328ZM254.536 45.5895L245.711 30.3059L249.517 28.1086L255.429 38.348L257.189 23.6791L261.025 21.4644L269.849 36.7481L266.013 38.9628L260.084 28.6931L258.341 43.3922L254.536 45.5895ZM278.309 31.8636L271.386 19.8723L265.436 23.3078L263.535 20.0154L279.242 10.9473L281.142 14.2396L275.222 17.6576L282.145 29.6489L278.309 31.8636Z" fill="white"/>
</svg>
