<svg width="60" height="60" viewBox="0 0 60 60" fill="none" xmlns="http://www.w3.org/2000/svg">
<circle cx="30" cy="30" r="30" fill="#554674"/>
<circle cx="30" cy="30" r="29" stroke="#554674" stroke-opacity="0.28" stroke-width="2"/>
<path fill-rule="evenodd" clip-rule="evenodd" d="M18.364 38.1773C18.1489 36.3592 17.9761 34.4053 17.932 32.508C17.929 32.3803 18.032 32.2903 18.1494 32.291C18.7326 32.2933 20.115 32.291 20.4333 32.291C20.841 32.291 20.8428 32.4038 20.8393 32.5402C20.7898 34.5558 20.902 36.7462 21.1644 39.0986C21.6582 43.5273 22.5397 45.9431 22.6827 46.4311C22.7555 46.6799 22.8323 46.9314 22.9134 47.1857C22.9455 47.2865 22.8843 47.3297 22.8004 47.2922C22.2008 47.0221 21.7777 46.8063 21.2071 46.4809C21.1281 46.4353 21.0283 46.323 20.9841 46.2299C20.2024 44.5554 19.4184 42.8039 18.9879 41.0022C18.3958 40.9329 17.6229 40.6873 17.6229 40.6873C17.6229 40.6873 17.8165 41.1399 17.8909 41.3298C17.9911 41.5856 18.1081 41.8567 18.2201 42.1219C18.5326 42.8618 18.904 43.6178 19.2425 44.2754C19.3751 44.5361 19.4956 44.8303 19.589 45.0083C19.7189 45.2557 19.8348 45.47 19.6987 45.4287C19.698 45.4284 19.6972 45.4282 19.6965 45.428C19.5889 45.3953 19.4872 45.3428 19.3975 45.275C18.7591 44.7917 18.2417 44.2938 17.6629 43.7112C14.7747 40.7027 13.0869 36.6506 13.0001 32.4813C12.9974 32.3723 13.0913 32.3039 13.2083 32.3047C13.6623 32.3076 15.2598 32.3008 15.7143 32.3047C15.8314 32.3056 15.9247 32.4043 15.9239 32.5249C16.0442 34.3048 16.2964 36.1468 16.743 37.8725L18.364 38.1773" fill="white"/>
<path fill-rule="evenodd" clip-rule="evenodd" d="M23.5347 47.6402C23.449 47.6073 23.3563 47.4977 23.3268 47.3946C23.2519 47.1325 23.1809 46.8733 23.1134 46.617C22.8824 45.7403 22.6556 44.7592 22.4468 43.6649C21.7514 39.9961 21.4687 36.2795 21.5282 32.5385C21.5316 32.3995 21.6167 32.3034 21.734 32.3039C23.6057 32.3122 25.3072 32.301 27.1788 32.3039C27.2963 32.3041 27.3901 32.4246 27.3884 32.5727C27.3827 33.1602 27.378 33.6472 27.3762 34.192C27.374 34.7309 27.3735 34.4014 27.3749 34.9784C27.3753 35.1222 27.2801 35.2367 27.1622 35.2342C26.1832 35.2131 25.3715 35.2348 24.3947 35.2171C24.3852 35.217 24.3663 35.2166 24.3663 35.2166C24.3663 35.2166 24.3668 35.2465 24.367 35.2618C24.3806 36.2105 24.4022 37.864 24.4404 38.7863C25.2876 38.8202 25.9225 38.8354 26.7722 38.8431C26.8883 38.848 26.9846 38.964 26.9874 39.1021C26.9983 39.6491 27.0093 39.9242 27.0233 40.4301C27.0374 40.926 27.0295 41.1715 27.0486 41.7013C27.0534 41.8331 26.9668 41.9338 26.855 41.9262C26.0611 41.8974 24.6354 41.7429 24.6386 41.7807C24.7363 42.9267 24.8582 44.2356 25.0009 45.3615C25.894 45.5209 26.6419 45.6188 27.5474 45.6946C27.6518 45.7031 27.7413 45.8083 27.7472 45.9295C27.7911 46.8387 27.8326 47.5909 27.8893 48.4939C27.8965 48.6064 27.825 48.689 27.7299 48.6783C26.2352 48.5054 24.9403 48.1751 23.5347 47.6402" fill="white"/>
<path fill-rule="evenodd" clip-rule="evenodd" d="M28.2675 48.4881C28.2254 43.6845 28.1101 39.2059 28.1052 34.5767C28.1045 33.9127 28.0818 33.2425 28.0949 32.5602C28.096 32.4117 28.1923 32.2909 28.3098 32.291C28.5789 32.2912 30.2982 32.2913 31.0017 32.291C31.1192 32.2909 31.2155 32.4113 31.2167 32.5595C31.2246 33.4837 31.2213 34.3918 31.2082 35.2981C31.1585 38.7298 31.1437 42.193 31.0191 45.6543C31.6356 45.6164 32.0071 45.5928 32.6155 45.5502C32.7193 45.543 32.7947 45.6256 32.7847 45.7455C32.7451 46.2242 32.6656 47.8362 32.6157 48.2901C32.6036 48.4013 32.5178 48.5037 32.424 48.5189C31.3566 48.6889 30.3974 48.7556 29.3285 48.7404C29.0579 48.736 28.7696 48.7251 28.4516 48.7039C28.3552 48.6976 28.2728 48.6008 28.2675 48.4881" fill="white"/>
<path fill-rule="evenodd" clip-rule="evenodd" d="M33.0002 48.1812C33.3324 43.8623 33.5179 39.8656 33.6214 35.4732C33.6359 34.8547 33.6428 34.2309 33.6366 33.5961C33.6334 33.266 33.6488 32.9267 33.6426 32.5771C33.6401 32.4311 33.733 32.3043 33.8505 32.304C34.7474 32.3016 35.5246 32.3075 36.4215 32.304C36.5388 32.3035 36.6373 32.4179 36.6407 32.559C36.6474 32.8977 36.664 33.2247 36.6535 33.5407C36.5132 37.8068 36.2539 41.1091 35.9481 44.9034C35.9481 44.9034 36.478 44.7781 37.0808 44.6084C37.1773 44.5812 37.2992 44.6343 37.2891 44.7549C37.2293 45.4651 37.0859 46.7953 37.0827 46.8123C37.0456 47.0075 36.9514 47.0438 36.868 47.0823C36.5815 47.2147 36.3104 47.3342 36.0634 47.4337C35.3436 47.7222 34.6985 47.9423 33.9471 48.1386C33.6855 48.2064 33.5024 48.2734 33.185 48.3385C33.0926 48.3575 32.9865 48.2917 33.0002 48.1812" fill="white"/>
<path fill-rule="evenodd" clip-rule="evenodd" d="M40.4781 42.2862C40.3186 42.5067 40.2283 42.5708 40.1357 42.5464C40.056 42.5255 40.1224 42.2535 40.2338 41.7687C40.7993 39.3084 41.1778 37.705 41.6017 35.8082C41.7197 35.2809 41.8969 35.044 42.1549 34.9571C42.387 34.8847 42.7149 34.8825 42.9278 35.0206C43.1969 35.1953 43.1783 35.3607 43.1832 35.5604C43.1909 35.8753 42.3514 39.6947 40.4781 42.2862ZM45.5088 33.0908C45.1422 32.6741 44.6219 32.2439 42.7386 32.1745C41.1519 32.1159 40.4026 32.4082 39.8144 32.9737C39.1142 33.6468 38.983 35.6832 38.6932 37.9337C38.3944 40.2543 38.2741 41.5188 37.6919 45.2712C37.5513 46.1775 37.6855 46.7652 38.8381 45.9955C39.9149 45.2763 40.8315 44.4452 41.7424 43.4978C43.7221 41.4389 45.1665 38.565 45.75 35.8419C45.9584 34.8697 45.9879 33.6351 45.5088 33.0908V33.0908Z" fill="white"/>
<path fill-rule="evenodd" clip-rule="evenodd" d="M34.3693 26.4114L34.6208 26.8712C35.2869 28.0881 35.0567 29.5308 33.7094 30.2661C32.3553 31.0052 30.6423 30.5263 29.8949 29.1607C29.1585 27.8154 29.6602 26.1456 31.0211 25.4029C31.6844 25.0408 32.4247 24.9792 33.0707 25.1797C33.1477 25.208 33.1631 25.2522 33.1485 25.3218L32.938 26.1742C32.9232 26.2437 32.8691 26.2732 32.7995 26.2585C32.4028 26.1764 31.9897 26.2087 31.5767 26.4342C30.8116 26.8517 30.5488 27.7853 30.9781 28.5696C31.4184 29.374 32.3276 29.6855 33.14 29.2421C33.851 28.8541 33.9939 28.2319 33.7589 27.7543L32.6892 28.3381C32.6283 28.3714 32.5654 28.353 32.5321 28.2922L32.162 27.616C32.1287 27.5552 32.1472 27.4924 32.208 27.4591L34.2121 26.3654C34.273 26.3322 34.336 26.3506 34.3693 26.4114" fill="white"/>
<path fill-rule="evenodd" clip-rule="evenodd" d="M35.9875 25.6319L36.4615 25.3732C36.8338 25.17 37.1623 24.8062 36.8885 24.3059C36.6146 23.8056 36.1307 23.8855 35.7584 24.0886L35.2844 24.3473L35.9875 25.6319ZM39.6508 26.9081L38.7503 27.3995C38.6961 27.4291 38.6444 27.4309 38.5916 27.3984L36.7734 26.4063L36.4959 26.5578L37.3137 28.0518C37.347 28.1127 37.3286 28.1754 37.2676 28.2087L36.4213 28.6706C36.3604 28.7038 36.2976 28.6854 36.2643 28.6246L33.7849 24.0951C33.7517 24.0343 33.7701 23.9714 33.831 23.9382L35.273 23.1512C36.4105 22.5304 37.385 22.8327 37.892 23.7589C38.262 24.435 38.2189 25.1434 37.7151 25.7168L39.6519 26.7494C39.74 26.7979 39.7321 26.8638 39.6508 26.9081V26.9081Z" fill="white"/>
<path fill-rule="evenodd" clip-rule="evenodd" d="M42.4405 24.1827C42.5015 24.1493 42.5642 24.1677 42.5976 24.2286L42.9935 24.9519C43.0268 25.0128 43.0085 25.0755 42.9474 25.1088L40.4018 26.4981C40.3409 26.5313 40.278 26.5129 40.2448 26.4521L37.7654 21.9226C37.7321 21.8617 37.7506 21.799 37.8114 21.7657L40.3504 20.3801C40.4113 20.3469 40.4741 20.3653 40.5074 20.4261L40.9035 21.1495C40.9367 21.2103 40.9183 21.2731 40.8574 21.3064L39.2663 22.1747L39.7733 23.1008L41.2694 22.2843C41.3305 22.2509 41.3933 22.2694 41.4266 22.3302L41.8225 23.0536C41.8558 23.1144 41.8375 23.1771 41.7764 23.2103L40.2802 24.027L40.8427 25.0546L42.4405 24.1827" fill="white"/>
<path fill-rule="evenodd" clip-rule="evenodd" d="M46.0175 22.3627L46.4135 23.086C46.4467 23.1468 46.4284 23.2096 46.3673 23.2428L43.8217 24.6322C43.7608 24.6655 43.698 24.647 43.6647 24.5862L41.1853 20.0566C41.1521 19.9958 41.1705 19.9331 41.2314 19.8998L43.7703 18.5141C43.8312 18.4809 43.8941 18.4993 43.9274 18.5602L44.3234 19.2836C44.3567 19.3444 44.3382 19.4072 44.2774 19.4404L42.6863 20.3087L43.1932 21.2349L44.6894 20.4183C44.7504 20.3851 44.8132 20.4035 44.8465 20.4644L45.2424 21.1877C45.2757 21.2485 45.2574 21.3111 45.1963 21.3444L43.7002 22.1611L44.2626 23.1888L45.8604 22.3167C45.9215 22.2834 45.9841 22.3018 46.0175 22.3627" fill="white"/>
<path fill-rule="evenodd" clip-rule="evenodd" d="M48.5041 16.0624L50.9833 20.5919C51.0166 20.6527 50.9984 20.7155 50.9373 20.7488L49.9759 21.2735C49.9218 21.303 49.8701 21.3048 49.8171 21.2723L46.5196 19.1999L48.133 22.1475C48.1663 22.2083 48.148 22.2711 48.087 22.3043L47.2407 22.7663C47.1798 22.7995 47.1169 22.7811 47.0836 22.7203L44.6043 18.1907C44.571 18.1299 44.5894 18.0671 44.6503 18.0339L45.605 17.5128C45.659 17.4833 45.7108 17.4814 45.7638 17.5139L49.0718 19.5895L47.4546 16.635C47.4213 16.5744 47.4397 16.5115 47.5007 16.4782L48.3469 16.0164C48.408 15.9831 48.4708 16.0016 48.5041 16.0624" fill="white"/>
</svg>
