<svg width="32" height="32" viewBox="0 0 32 32" fill="none" xmlns="http://www.w3.org/2000/svg">
<path d="M16.0015 0C11.6561 0 11.1108 0.0190003 9.4041 0.0966668C7.70075 0.174667 6.53807 0.444333 5.52072 0.839999C4.46838 1.24866 3.5757 1.79533 2.68636 2.68499C1.79635 3.57433 1.24968 4.46699 0.839675 5.51899C0.443004 6.53665 0.173002 7.69965 0.0963342 9.40232C0.0200001 11.109 0 11.6546 0 16C0 20.3453 0.0193338 20.889 0.096668 22.5956C0.175002 24.299 0.444671 25.4616 0.840009 26.4789C1.24901 27.5313 1.79569 28.4239 2.68536 29.3133C3.57437 30.2033 4.46705 30.7513 5.51872 31.1599C6.53673 31.5556 7.69975 31.8253 9.40276 31.9033C11.1094 31.9809 11.6545 31.9999 15.9995 31.9999C20.3452 31.9999 20.8889 31.9809 22.5956 31.9033C24.2989 31.8253 25.4629 31.5556 26.4809 31.1599C27.533 30.7513 28.4243 30.2033 29.3133 29.3133C30.2033 28.4239 30.75 27.5313 31.16 26.4793C31.5533 25.4616 31.8233 24.2986 31.9033 22.596C31.98 20.8893 32 20.3453 32 16C32 11.6546 31.98 11.1093 31.9033 9.40265C31.8233 7.69932 31.5533 6.53665 31.16 5.51932C30.75 4.46699 30.2033 3.57433 29.3133 2.68499C28.4233 1.795 27.5333 1.24833 26.4799 0.839999C25.4599 0.444333 24.2966 0.174667 22.5932 0.0966668C20.8866 0.0190003 20.3432 0 15.9965 0H16.0015ZM14.5662 2.88333C14.9922 2.88266 15.4675 2.88333 16.0015 2.88333C20.2735 2.88333 20.7799 2.89866 22.4669 2.97533C24.0269 3.04666 24.8736 3.30733 25.4376 3.52633C26.1843 3.81633 26.7166 4.16299 27.2763 4.72299C27.8363 5.28299 28.183 5.81632 28.4736 6.56299C28.6926 7.12632 28.9536 7.97298 29.0246 9.53298C29.1013 11.2196 29.118 11.7263 29.118 15.9963C29.118 20.2663 29.1013 20.773 29.0246 22.4596C28.9533 24.0196 28.6926 24.8663 28.4736 25.4296C28.1836 26.1763 27.8363 26.7079 27.2763 27.2676C26.7163 27.8276 26.1846 28.1743 25.4376 28.4643C24.8743 28.6843 24.0269 28.9443 22.4669 29.0156C20.7802 29.0923 20.2735 29.1089 16.0015 29.1089C11.7291 29.1089 11.2228 29.0923 9.5361 29.0156C7.97608 28.9436 7.12941 28.6829 6.56507 28.4639C5.81839 28.1739 5.28505 27.8273 4.72505 27.2673C4.16504 26.7073 3.81837 26.1753 3.5277 25.4283C3.3087 24.865 3.0477 24.0183 2.9767 22.4583C2.90003 20.7716 2.8847 20.265 2.8847 15.9923C2.8847 11.7196 2.90003 11.2156 2.9767 9.52898C3.04803 7.96899 3.3087 7.12232 3.5277 6.55832C3.81771 5.81166 4.16504 5.27832 4.72505 4.71832C5.28505 4.15832 5.81839 3.81166 6.56507 3.52099C7.12907 3.30099 7.97608 3.04099 9.5361 2.96933C11.0121 2.90266 11.5841 2.88266 14.5662 2.87933V2.88333ZM24.5423 5.53999C23.4822 5.53999 22.6222 6.39899 22.6222 7.45932C22.6222 8.51932 23.4822 9.37932 24.5423 9.37932C25.6023 9.37932 26.4623 8.51932 26.4623 7.45932C26.4623 6.39932 25.6023 5.53932 24.5423 5.53932V5.53999ZM16.0015 7.78332C11.4638 7.78332 7.78475 11.4623 7.78475 16C7.78475 20.5376 11.4638 24.215 16.0015 24.215C20.5392 24.215 24.2169 20.5376 24.2169 16C24.2169 11.4623 20.5389 7.78332 16.0012 7.78332H16.0015ZM16.0015 10.6666C18.9469 10.6666 21.3349 13.0543 21.3349 16C21.3349 18.9453 18.9469 21.3333 16.0015 21.3333C13.0558 21.3333 10.6681 18.9453 10.6681 16C10.6681 13.0543 13.0558 10.6666 16.0015 10.6666Z" fill="black"/>
</svg>
