<svg width="61" height="52" viewBox="0 0 61 52" fill="none" xmlns="http://www.w3.org/2000/svg">
                    <path
                        d="M8.50132 35.2216C8.15866 32.3355 7.88779 29.2305 7.816 26.217C7.81273 26.0146 7.9759 25.871 8.16192 25.8742C9.08547 25.8775 11.2785 25.8742 11.7811 25.8742C12.4272 25.8742 12.4305 26.0538 12.424 26.2693C12.3457 29.4689 12.5219 32.9493 12.9396 36.6843C13.7228 43.7169 15.1196 47.5531 15.3448 48.3302C15.459 48.7252 15.583 49.1236 15.7103 49.5284C15.7625 49.6884 15.6646 49.7569 15.5308 49.6982C14.5811 49.2705 13.9088 48.9277 13.0049 48.4085C12.8809 48.3367 12.7209 48.1571 12.6524 48.0102C11.4123 45.3526 10.1689 42.5709 9.48688 39.7076C8.54701 39.5966 7.32322 39.2081 7.32322 39.2081C7.32322 39.2081 7.62998 39.9263 7.74746 40.23C7.90737 40.6348 8.09012 41.0658 8.26961 41.487C8.76566 42.6623 9.35308 43.8638 9.89154 44.9086C10.1004 45.3232 10.2929 45.7901 10.4398 46.0741C10.6454 46.4659 10.8282 46.8055 10.6128 46.7402H10.6095C10.4398 46.6879 10.2766 46.6031 10.1363 46.4986C9.12463 45.7313 8.30551 44.9412 7.38848 44.014C2.81314 39.2309 0.137118 32.7958 5.33516e-05 26.1746C-0.00321009 26.0016 0.143645 25.8938 0.329661 25.8938C1.05088 25.8971 3.58005 25.8873 4.30127 25.8938C4.48728 25.8938 4.63414 26.0505 4.63414 26.2432C4.82342 29.0706 5.22482 31.9959 5.93299 34.7352L8.50132 35.2216Z"
                        fill="#5E447F" />
                    <path
                        d="M16.6991 50.25C16.562 50.1977 16.4151 50.0247 16.3695 49.8614C16.252 49.4468 16.1378 49.0322 16.0301 48.6273C15.6646 47.2365 15.3056 45.6758 14.9727 43.9389C13.8697 38.1111 13.4226 32.2114 13.5172 26.2693C13.5237 26.0473 13.6575 25.8971 13.8436 25.8971C16.81 25.9102 19.5089 25.8938 22.4754 25.8971C22.6614 25.8971 22.8115 26.0897 22.8082 26.3248C22.7984 27.2586 22.7919 28.0324 22.7887 28.8975C22.7854 29.753 22.7854 29.2306 22.7854 30.1447C22.7854 30.3733 22.6353 30.5561 22.4493 30.5496C20.8959 30.5169 19.6101 30.5496 18.0632 30.5235C18.0469 30.5235 18.0175 30.5235 18.0175 30.5235C18.0175 30.5235 18.0175 30.5724 18.0175 30.5953C18.0403 32.1004 18.073 34.7287 18.135 36.1913C19.4763 36.2468 20.4847 36.2697 21.8325 36.2827C22.0152 36.2893 22.1686 36.4754 22.1719 36.6941C22.1882 37.5626 22.2078 38.0001 22.2273 38.8032C22.2502 39.5901 22.2371 39.9819 22.2665 40.8209C22.273 41.0299 22.136 41.1899 21.9597 41.1801C20.7 41.1344 18.4417 40.8895 18.4483 40.9483C18.6017 42.7701 18.7975 44.8466 19.0226 46.6357C20.439 46.8871 21.6236 47.0438 23.0595 47.1646C23.226 47.1777 23.3663 47.3442 23.3761 47.5368C23.4446 48.9799 23.5131 50.1749 23.6012 51.6082C23.6143 51.7877 23.5001 51.9183 23.35 51.902C20.9774 51.6212 18.9247 51.0988 16.6991 50.25Z"
                        fill="#5E447F" />
                    <path
                        d="M24.1984 51.595C24.1332 43.965 23.9471 36.854 23.9406 29.5015C23.9406 28.4469 23.9047 27.3826 23.9243 26.2986C23.9276 26.0635 24.0777 25.8709 24.2637 25.8709C24.6912 25.8709 27.4162 25.8709 28.529 25.8709C28.715 25.8709 28.8684 26.0603 28.8684 26.2986C28.8815 27.7646 28.8749 29.2076 28.8554 30.6475C28.777 36.0966 28.7542 41.5979 28.5551 47.0927C29.5309 47.034 30.1216 46.9948 31.0843 46.9262C31.2507 46.9132 31.3682 47.047 31.3519 47.2364C31.2899 47.9971 31.1626 50.5568 31.0843 51.2783C31.0647 51.4546 30.9276 51.6179 30.7808 51.6407C29.0903 51.9117 27.5696 52.0162 25.8726 51.9933C25.4451 51.9868 24.9882 51.9672 24.4823 51.9346C24.3388 51.928 24.2082 51.7746 24.1984 51.595Z"
                        fill="#5E447F" />
                    <path
                        d="M31.7043 51.1087C32.2297 44.2491 32.5234 37.9022 32.6898 30.9284C32.7127 29.9456 32.7225 28.9564 32.7127 27.9475C32.7094 27.4219 32.7322 26.8832 32.7225 26.3281C32.7192 26.0963 32.866 25.8939 33.0521 25.8939C34.4749 25.8906 35.7052 25.9004 37.1281 25.8939C37.3141 25.8939 37.4708 26.0735 37.474 26.2988C37.4838 26.8375 37.5099 27.3566 37.4936 27.8561C37.2717 34.6308 36.8605 39.8742 36.3742 45.9012C36.3742 45.9012 37.213 45.702 38.1691 45.4343C38.3225 45.3919 38.5151 45.4767 38.4987 45.6661C38.4041 46.7958 38.1757 48.9082 38.1724 48.9343C38.1137 49.2444 37.9635 49.2999 37.833 49.362C37.3794 49.5709 36.9486 49.7636 36.557 49.9203C35.4148 50.3774 34.3933 50.7267 33.2022 51.0401C32.7877 51.1479 32.4973 51.2556 31.9947 51.3568C31.8479 51.3862 31.6814 51.2817 31.7043 51.1087Z"
                        fill="#5E447F" />
                    <path
                        d="M51.5266 27.1411C50.9457 26.4783 50.1201 25.796 47.134 25.685C44.6179 25.5936 43.43 26.0572 42.4999 26.955C41.3904 28.0226 41.1815 31.2582 40.7214 34.8332C40.2482 38.5193 40.0556 40.5272 39.1353 46.4856C38.9134 47.9254 39.1255 48.8592 40.9531 47.6349C42.6599 46.4922 44.1121 45.1731 45.5578 43.668C48.694 40.3966 50.9849 35.8323 51.9085 31.5096C52.2413 29.9685 52.287 28.0063 51.5266 27.1411ZM43.554 41.745C43.3028 42.0943 43.1592 42.1956 43.0123 42.1596C42.885 42.127 42.9927 41.6928 43.169 40.9255C44.0664 37.0174 44.6636 34.4708 45.3359 31.4606C45.5219 30.6215 45.8025 30.246 46.2137 30.1089C46.5825 29.9946 47.1014 29.9914 47.4375 30.2101C47.865 30.4876 47.8357 30.7488 47.8422 31.0688C47.8553 31.5651 46.5238 37.6312 43.554 41.745Z"
                        fill="#5E447F" />
                    <path
                        d="M33.8714 16.5334L34.2695 17.2648C35.3269 19.1976 34.9614 21.4895 32.8238 22.6551C30.6765 23.8305 27.9613 23.0698 26.7767 20.8986C25.6084 18.7634 26.4046 16.109 28.5618 14.9304C29.6126 14.3557 30.7874 14.2578 31.8122 14.5745C31.9329 14.6202 31.959 14.6888 31.9362 14.7998L31.6033 16.1547C31.5805 16.2657 31.4956 16.3114 31.3846 16.2886C30.7548 16.158 30.1021 16.2102 29.4462 16.5661C28.2322 17.2289 27.8177 18.7111 28.4965 19.9583C29.1949 21.2349 30.6341 21.7311 31.9231 21.0259C33.049 20.4089 33.2774 19.4229 32.9054 18.6621L31.2084 19.5894C31.1105 19.6416 31.0126 19.6122 30.9604 19.5175L30.373 18.4434C30.3208 18.3454 30.3501 18.2475 30.4448 18.1953L33.6201 16.4583C33.718 16.4094 33.8192 16.4387 33.8714 16.5334Z"
                        fill="#37A037" />
                    <path
                        d="M42.2452 17.3235L40.8191 18.1038C40.7342 18.1496 40.6494 18.1528 40.5678 18.1006L37.6862 16.5236L37.2456 16.7652L38.5412 19.1388C38.5934 19.2368 38.564 19.3347 38.4694 19.387L37.1281 20.1216C37.0302 20.1738 36.9323 20.1444 36.8801 20.0497L32.9509 12.8572C32.8987 12.7592 32.9281 12.6613 33.0227 12.609L35.3071 11.3586C37.1118 10.3726 38.6554 10.8525 39.4582 12.325C40.0457 13.3991 39.9771 14.5223 39.1776 15.4332L42.2485 17.0721C42.3856 17.1472 42.3758 17.2517 42.2452 17.3235ZM36.4395 15.296L37.1901 14.8847C37.7808 14.5614 38.303 13.9835 37.8657 13.1902C37.4316 12.3968 36.6647 12.5209 36.074 12.8441L35.3234 13.2555L36.4395 15.296Z"
                        fill="#37A037" />
                    <path
                        d="M46.6673 12.9942C46.7652 12.942 46.8631 12.9713 46.9153 13.066L47.5419 14.2153C47.5941 14.3132 47.5647 14.4112 47.4701 14.4634L43.4365 16.6705C43.3386 16.7227 43.2407 16.6933 43.1885 16.5986L39.2593 9.40607C39.2071 9.31139 39.2364 9.21018 39.3311 9.15794L43.3549 6.9574C43.4528 6.90516 43.5507 6.93455 43.6029 7.02923L44.2295 8.17847C44.2817 8.27642 44.2523 8.37436 44.1577 8.4266L41.6351 9.80439L42.4379 11.2769L44.8104 9.98069C44.9083 9.92846 45.0062 9.95784 45.0584 10.0525L45.685 11.2018C45.7372 11.2997 45.7078 11.3977 45.6132 11.4499L43.2407 12.7461L44.1316 14.3785L46.6673 12.9942Z"
                        fill="#37A037" />
                    <path
                        d="M52.3358 10.1048L52.9624 11.2541C53.0146 11.3488 52.9852 11.45 52.8906 11.5022L48.857 13.7093C48.7591 13.7615 48.6612 13.7321 48.609 13.6375L44.6765 6.44162C44.6243 6.34368 44.6537 6.24573 44.7483 6.19349L48.7721 3.99295C48.87 3.94071 48.9679 3.9701 49.0201 4.06478L49.6467 5.21402C49.6989 5.31197 49.6696 5.40992 49.5749 5.46216L47.0523 6.83994L47.8551 8.31241L50.2276 7.01625C50.3255 6.96401 50.4234 6.99339 50.4756 7.08807L51.1022 8.23732C51.1544 8.33526 51.1251 8.43321 51.0304 8.48545L48.6579 9.78161L49.5488 11.4141L52.0813 10.0297C52.1857 9.97751 52.2836 10.0069 52.3358 10.1048Z"
                        fill="#37A037" />
                    <path
                        d="M56.278 0.0978805L60.2072 7.29045C60.2594 7.38839 60.2301 7.48634 60.1354 7.53858L58.6114 8.37113C58.5265 8.41683 58.445 8.4201 58.3601 8.36786L53.1321 5.07685L55.6906 9.75871C55.7428 9.85665 55.7134 9.9546 55.6188 10.0068L54.2775 10.7414C54.1796 10.7937 54.0817 10.7643 54.0295 10.6696L50.1003 3.47705C50.0481 3.3791 50.0775 3.28115 50.1721 3.22892L51.6864 2.4029C51.7712 2.35719 51.8528 2.35392 51.9376 2.40616L57.182 5.70371L54.6202 1.01205C54.568 0.914104 54.5974 0.816158 54.692 0.763919L56.0333 0.0293176C56.1246 -0.0261856 56.2258 0.00319847 56.278 0.0978805Z"
                        fill="#37A037" />
                </svg>