<svg width="32" height="4" viewBox="0 0 32 4" fill="none" xmlns="http://www.w3.org/2000/svg">
<path d="M8 0C8 0.525287 7.89654 1.04543 7.69552 1.53073C7.4945 2.01604 7.19986 2.45699 6.82843 2.82843C6.45699 3.19986 6.01604 3.4945 5.53073 3.69552C5.04543 3.89654 4.52529 4 4 4C3.47471 4 2.95457 3.89654 2.46927 3.69552C1.98396 3.4945 1.54301 3.19986 1.17157 2.82843C0.800138 2.45699 0.505501 2.01604 0.304482 1.53073C0.103463 1.04543 -4.59221e-08 0.525287 0 -3.49691e-07L4 0H8Z" fill="#009806"/>
<path d="M20 0C20 0.525287 19.8965 1.04543 19.6955 1.53073C19.4945 2.01604 19.1999 2.45699 18.8284 2.82843C18.457 3.19986 18.016 3.4945 17.5307 3.69552C17.0454 3.89654 16.5253 4 16 4C15.4747 4 14.9546 3.89654 14.4693 3.69552C13.984 3.4945 13.543 3.19986 13.1716 2.82843C12.8001 2.45699 12.5055 2.01604 12.3045 1.53073C12.1035 1.04543 12 0.525287 12 -3.49691e-07L16 0H20Z" fill="#9504C8"/>
<path d="M32 0C32 1.06087 31.5786 2.07828 30.8284 2.82843C30.0783 3.57857 29.0609 4 28 4C26.9391 4 25.9217 3.57857 25.1716 2.82843C24.4214 2.07828 24 1.06087 24 6.03983e-07L28 0H32Z" fill="#8F8F8F"/>
</svg>
