<svg width="434" height="880" viewBox="0 0 434 880" fill="none" xmlns="http://www.w3.org/2000/svg">
<rect y="6.10352e-05" width="434" height="880" rx="32" fill="white"/>
<rect y="6.10352e-05" width="434" height="880" rx="32" fill="#FFE6C8"/>
<path d="M344.689 -5.13831C322.5 17.0502 322.809 53.3309 345.38 75.9011C367.95 98.4713 404.234 98.7839 426.422 76.5954C448.611 54.4069 448.298 18.1229 425.728 -4.44728C403.158 -27.0175 366.877 -27.3268 344.689 -5.13831" stroke="#6B8B2A"/>
<path d="M265.724 156.941C234.355 125.573 234.356 74.7177 265.726 43.3477L379.322 156.944C347.952 188.314 297.092 188.31 265.724 156.941Z" stroke="#6B8B2A"/>
<path d="M184.796 -12.7461C153.427 -44.1148 153.428 -94.9698 184.798 -126.34L298.394 -12.7438C267.024 18.6262 216.165 18.6226 184.796 -12.7461Z" stroke="#6B8B2A"/>
</svg>
