<svg width="34" height="34" viewBox="0 0 34 34" fill="none" xmlns="http://www.w3.org/2000/svg">
<mask id="mask0_110_657" style="mask-type:alpha" maskUnits="userSpaceOnUse" x="0" y="0" width="34" height="34">
<circle cx="17" cy="17" r="17" fill="#C4C4C4"/>
</mask>
<g mask="url(#mask0_110_657)">
<circle cx="17" cy="17" r="16.25" stroke="black" stroke-width="1.5"/>
<mask id="path-3-inside-1_110_657" fill="white">
<path fill-rule="evenodd" clip-rule="evenodd" d="M9.40983 -0.210431C8.51594 -1.10432 8.069 -1.55126 7.60261 -1.81737C6.37401 -2.51839 4.86652 -2.51839 3.63792 -1.81737C3.17153 -1.55126 2.72459 -1.10432 1.8307 -0.210431C0.936814 0.683455 0.489871 1.1304 0.223757 1.59679C-0.477263 2.82539 -0.477263 4.33288 0.223758 5.56148C0.489871 6.02786 0.936814 6.47481 1.8307 7.36869L4.77843 10.3164C7.4451 12.9831 8.77843 14.3164 8.77843 15.9733C8.77843 17.6301 7.4451 18.9635 4.77843 21.6301L-1.81862 28.2272C-2.14696 28.5555 -2.31113 28.7197 -2.43579 28.8716C-3.6464 30.3467 -3.6464 32.4716 -2.43579 33.9467C-2.31113 34.0986 -2.14696 34.2628 -1.81862 34.5912C-1.49029 34.9195 -1.32612 35.0837 -1.17422 35.2083C0.300918 36.4189 2.4258 36.4189 3.90093 35.2083C4.05283 35.0837 4.217 34.9195 4.54534 34.5912L11.1424 27.9941C13.8091 25.3274 15.1424 23.9941 16.7992 23.9941C18.4561 23.9941 19.7894 25.3274 22.4561 27.9941L34.8328 40.3708C35.7267 41.2647 36.1736 41.7116 36.64 41.9777C37.8686 42.6787 39.3761 42.6787 40.6047 41.9777C41.0711 41.7116 41.518 41.2647 42.4119 40.3708C43.3058 39.4769 43.7527 39.03 44.0189 38.5636C44.7199 37.335 44.7199 35.8275 44.0189 34.5989C43.7527 34.1325 43.3058 33.6855 42.4119 32.7917L9.40983 -0.210431Z"/>
</mask>
<path d="M44.0189 38.5636L42.716 37.8202L44.0189 38.5636ZM42.4119 32.7917L41.3513 33.8523L42.4119 32.7917ZM44.0189 34.5989L42.716 35.3423L44.0189 34.5989ZM36.64 41.9777L37.3834 40.6749L36.64 41.9777ZM40.6047 41.9777L41.3481 43.2806L40.6047 41.9777ZM11.1424 27.9941L10.0817 26.9334L11.1424 27.9941ZM16.7992 23.9941V22.4941V23.9941ZM-1.17422 35.2083L-0.222625 34.0488L-1.17422 35.2083ZM3.90093 35.2083L4.85252 36.3678L3.90093 35.2083ZM-1.81862 28.2272L-0.757963 29.2879L-1.81862 28.2272ZM-2.43579 28.8716L-1.27628 29.8232L-2.43579 28.8716ZM-2.43579 33.9467L-1.27628 32.9952L-2.43579 33.9467ZM4.77843 21.6301L3.71777 20.5695L4.77843 21.6301ZM8.77843 15.9733H10.2784H8.77843ZM3.63792 -1.81737L2.89454 -3.12021L3.63792 -1.81737ZM7.60261 -1.81737L8.34599 -3.12021L7.60261 -1.81737ZM0.223757 1.59679L1.5266 2.34017L0.223757 1.59679ZM0.223758 5.56148L1.5266 4.8181L0.223758 5.56148ZM5.83909 9.25576L2.89136 6.30803L0.77004 8.42935L3.71777 11.3771L5.83909 9.25576ZM-0.757963 29.2879L5.83909 22.6908L3.71777 20.5695L-2.87928 27.1665L-0.757963 29.2879ZM10.0817 26.9334L3.48468 33.5305L5.606 35.6518L12.2031 29.0548L10.0817 26.9334ZM35.8934 39.3101L23.5168 26.9334L21.3954 29.0548L33.7721 41.4314L35.8934 39.3101ZM8.34916 0.850229L41.3513 33.8523L43.4726 31.731L10.4705 -1.27109L8.34916 0.850229ZM43.4726 41.4314C44.2968 40.6072 44.9306 39.9923 45.3217 39.3069L42.716 37.8202C42.5749 38.0676 42.3148 38.3466 41.3513 39.3101L43.4726 41.4314ZM41.3513 33.8523C42.3148 34.8159 42.5749 35.0948 42.716 35.3423L45.3217 33.8555C44.9306 33.1701 44.2968 32.5552 43.4726 31.731L41.3513 33.8523ZM45.3217 39.3069C46.2856 37.6176 46.2856 35.5448 45.3217 33.8555L42.716 35.3423C43.1542 36.1101 43.1542 37.0523 42.716 37.8202L45.3217 39.3069ZM33.7721 41.4314C34.5964 42.2557 35.2113 42.8895 35.8966 43.2806L37.3834 40.6749C37.136 40.5337 36.857 40.2737 35.8934 39.3101L33.7721 41.4314ZM41.3513 39.3101C40.3877 40.2737 40.1087 40.5337 39.8613 40.6749L41.3481 43.2806C42.0334 42.8895 42.6483 42.2557 43.4726 41.4314L41.3513 39.3101ZM35.8966 43.2806C37.586 44.2445 39.6588 44.2445 41.3481 43.2806L39.8613 40.6749C39.0934 41.113 38.1513 41.113 37.3834 40.6749L35.8966 43.2806ZM12.2031 29.0548C13.5664 27.6914 14.4844 26.7779 15.2594 26.1866C15.9997 25.6218 16.4307 25.4941 16.7992 25.4941V22.4941C15.511 22.4941 14.4468 23.0331 13.4396 23.8016C12.467 24.5436 11.3851 25.6301 10.0817 26.9334L12.2031 29.0548ZM23.5168 26.9334C22.2134 25.6301 21.1315 24.5436 20.1589 23.8016C19.1517 23.0331 18.0875 22.4941 16.7992 22.4941V25.4941C17.1678 25.4941 17.5988 25.6218 18.3391 26.1866C19.1141 26.7779 20.0321 27.6914 21.3954 29.0548L23.5168 26.9334ZM-2.87928 35.6518C-2.57619 35.9549 -2.34903 36.1846 -2.12581 36.3678L-0.222625 34.0488C-0.303205 33.9827 -0.404388 33.8841 -0.757964 33.5305L-2.87928 35.6518ZM3.48468 33.5305C3.1311 33.8841 3.02992 33.9827 2.94934 34.0488L4.85252 36.3678C5.07575 36.1846 5.3029 35.9549 5.606 35.6518L3.48468 33.5305ZM-2.12581 36.3678C-0.0974972 38.0324 2.82421 38.0324 4.85252 36.3678L2.94934 34.0488C2.02738 34.8054 0.699333 34.8054 -0.222625 34.0488L-2.12581 36.3678ZM-2.87928 27.1665C-3.18238 27.4696 -3.41211 27.6968 -3.59531 27.92L-1.27628 29.8232C-1.21015 29.7426 -1.11154 29.6414 -0.757963 29.2879L-2.87928 27.1665ZM-0.757964 33.5305C-1.11154 33.1769 -1.21015 33.0757 -1.27628 32.9952L-3.59531 34.8983C-3.41211 35.1216 -3.18238 35.3487 -2.87928 35.6518L-0.757964 33.5305ZM-3.59531 27.92C-5.2599 29.9483 -5.2599 32.87 -3.59531 34.8983L-1.27628 32.9952C-2.03291 32.0732 -2.03291 30.7451 -1.27628 29.8232L-3.59531 27.92ZM3.71777 11.3771C5.08109 12.7404 5.99463 13.6584 6.5859 14.4334C7.15077 15.1737 7.27843 15.6047 7.27843 15.9733H10.2784C10.2784 14.685 9.73944 13.6209 8.97097 12.6137C8.22891 11.6411 7.14244 10.5591 5.83909 9.25576L3.71777 11.3771ZM5.83909 22.6908C7.14244 21.3874 8.22891 20.3055 8.97097 19.3329C9.73944 18.3257 10.2784 17.2615 10.2784 15.9733H7.27843C7.27843 16.3419 7.15077 16.7728 6.5859 17.5132C5.99463 18.2881 5.08109 19.2062 3.71777 20.5695L5.83909 22.6908ZM2.89136 0.850229C3.85491 -0.113317 4.13389 -0.37337 4.3813 -0.514536L2.89454 -3.12021C2.20917 -2.72915 1.59427 -2.09532 0.77004 -1.27109L2.89136 0.850229ZM10.4705 -1.27109C9.64626 -2.09532 9.03136 -2.72915 8.34599 -3.12021L6.85923 -0.514536C7.10663 -0.37337 7.38562 -0.113317 8.34916 0.850229L10.4705 -1.27109ZM4.3813 -0.514536C5.14917 -0.952674 6.09135 -0.952674 6.85923 -0.514536L8.34599 -3.12021C6.65666 -4.08412 4.58386 -4.08412 2.89454 -3.12021L4.3813 -0.514536ZM0.77004 -1.27109C-0.0541859 -0.446865 -0.688019 0.168036 -1.07908 0.853407L1.5266 2.34017C1.66776 2.09276 1.92781 1.81378 2.89136 0.850229L0.77004 -1.27109ZM2.89136 6.30803C1.92781 5.34449 1.66776 5.0655 1.5266 4.8181L-1.07908 6.30486C-0.688019 6.99023 -0.0541859 7.60513 0.77004 8.42935L2.89136 6.30803ZM-1.07908 0.853407C-2.04298 2.54273 -2.04298 4.61553 -1.07908 6.30486L1.5266 4.8181C1.08846 4.05022 1.08846 3.10804 1.5266 2.34017L-1.07908 0.853407Z" fill="black" mask="url(#path-3-inside-1_110_657)"/>
</g>
</svg>
