<svg width="24" height="24" viewBox="0 0 24 24" fill="none" xmlns="http://www.w3.org/2000/svg">
<rect width="24" height="24" rx="12" fill="white"/>
<path d="M7.5 12C7.5 12.89 7.76392 13.76 8.25839 14.5001C8.75285 15.2401 9.45566 15.8169 10.2779 16.1575C11.1002 16.4981 12.005 16.5872 12.8779 16.4135C13.7508 16.2399 14.5526 15.8113 15.182 15.182C15.8113 14.5526 16.2399 13.7508 16.4135 12.8779C16.5872 12.005 16.4981 11.1002 16.1575 10.2779C15.8169 9.45565 15.2401 8.75285 14.5001 8.25838C13.76 7.76392 12.89 7.5 12 7.5L11 7.5M11 7.5L12.8779 5.62209M11 7.5L12.8779 9.3779" stroke="black"/>
</svg>
