<svg width="32" height="32" viewBox="0 0 32 32" fill="none" xmlns="http://www.w3.org/2000/svg">
<path d="M0 15.3334C0 8.10515 0 4.49103 2.24551 2.24552C4.49103 0 8.10513 0 15.3333 0H16.6667C23.8949 0 27.509 0 29.7545 2.24552C32 4.49103 32 8.10515 32 15.3334V16.6667C32 23.8949 32 27.5091 29.7545 29.7545C27.509 32.0001 23.8949 32.0001 16.6667 32.0001H15.3333C8.10513 32.0001 4.49103 32.0001 2.24551 29.7545C0 27.5091 0 23.8949 0 16.6667L0 15.3334Z" fill="black"/>
<path fill-rule="evenodd" clip-rule="evenodd" d="M8.70277 9.84619H6.34647C5.67323 9.84619 5.53857 10.1664 5.53857 10.5194C5.53857 11.15 6.33742 14.2773 9.25813 18.4133C11.2053 21.2379 13.9486 22.7691 16.445 22.7691C17.9428 22.7691 18.1281 22.429 18.1281 21.8433V19.7084C18.1281 19.0283 18.2699 18.8925 18.7442 18.8925C19.0937 18.8925 19.6928 19.0691 21.0908 20.4309C22.6885 22.045 22.9519 22.7691 23.8505 22.7691H26.2068C26.8801 22.7691 27.2167 22.429 27.0225 21.7579C26.81 21.0891 26.0472 20.1185 25.035 18.9682C24.4858 18.3125 23.662 17.6063 23.4124 17.2532C23.0629 16.7993 23.1627 16.5975 23.4124 16.194C23.4124 16.194 26.2832 12.1083 26.5828 10.7213C26.7325 10.2168 26.5828 9.84619 25.8702 9.84619H23.5139C22.9148 9.84619 22.6385 10.1664 22.4887 10.5194C22.4887 10.5194 21.2905 13.4702 19.593 15.3869C19.0438 15.9417 18.7941 16.1183 18.4946 16.1183C18.3448 16.1183 18.128 15.9417 18.128 15.4374V10.7213C18.128 10.1159 17.9541 9.84619 17.4548 9.84619H13.752C13.3776 9.84619 13.1524 10.1271 13.1524 10.3934C13.1524 10.9672 14.0012 11.0995 14.0887 12.7136V16.2192C14.0887 16.9878 13.9512 17.1272 13.6517 17.1272C12.8529 17.1272 10.9098 14.1632 9.75735 10.7717C9.53153 10.1125 9.30497 9.84619 8.70277 9.84619Z" fill="white"/>
</svg>
