<svg width="47" height="33" viewBox="0 0 47 33" fill="none" xmlns="http://www.w3.org/2000/svg">
<path d="M45.2839 5.6511C44.7598 3.69345 43.2252 2.14993 41.2789 1.62287C37.723 0.644043 23.4997 0.644043 23.4997 0.644043C23.4997 0.644043 9.27636 0.644043 5.72052 1.58522C3.8116 2.11228 2.23955 3.69345 1.71553 5.6511C0.779785 9.22757 0.779785 16.644 0.779785 16.644C0.779785 16.644 0.779785 24.0982 1.71553 27.637C2.23955 29.5946 3.77417 31.1382 5.72052 31.6652C9.31379 32.644 23.4997 32.644 23.4997 32.644C23.4997 32.644 37.723 32.644 41.2789 31.7029C43.2252 31.1758 44.7598 29.6323 45.2839 27.6746C46.2196 24.0982 46.2196 16.6817 46.2196 16.6817C46.2196 16.6817 46.257 9.22757 45.2839 5.6511Z" fill="black"/>
<path d="M30.7985 16.644L18.9707 9.79224V23.4957L30.7985 16.644Z" fill="white"/>
</svg>
